# xmcd
#
# Track frame offsets: 
#        150
#        11665
#        25000
#        37113
#        50665
#        65645
#        78213
#        89483
#        101828
#        113478
#        125163
#        141675
#        160808
#        173968
#        230540
#        244970
#        261493
#        279498
#
# Disc length: 3945 seconds
#
# Revision: 5
# Processed by: cddbd v1.5.2PL0 Copyright (c) Steve Scherf et al.
# Submitted via: ExactAudioCopy v1.0b1
#
DISCID=0b0f6712
DTITLE=The Temptations - Hum Along And Dance (More Of The Best 1963-19
DTITLE=74)
DYEAR=1993
DGENRE=Soul
TTITLE0=I Want A Love I Can See
TTITLE1=What Love Has Joined Together
TTITLE2=You've Got To Earn It
TTITLE3=No More Water In The Well
TTITLE4=Ain't No Sun Since You've Been Gone
TTITLE5=Gonna Give Her All The Love I've Got
TTITLE6=He Who Picks The Rose
TTITLE7=Fan The Flame
TTITLE8=Don't Let Him Take Your Love From Me
TTITLE9=Gonna Keep On Tryin' Till I Win Your Love
TTITLE10=Hum Along And Dance
TTITLE11=Ungena Za Ulimwengu (Unite The World)
TTITLE12=It's Summer
TTITLE13=Stop The War Now
TTITLE14=Take A Look Around
TTITLE15=The Plastic Man
TTITLE16=Heavenly
TTITLE17=You've Got My Soul On Fire
EXTD=
EXTT0=
EXTT1=
EXTT2=
EXTT3=
EXTT4=
EXTT5=
EXTT6=
EXTT7=
EXTT8=
EXTT9=
EXTT10=
EXTT11=
EXTT12=
EXTT13=
EXTT14=
EXTT15=
EXTT16=
EXTT17=
PLAYORDER=
